<svg xmlns="http://www.w3.org/2000/svg" viewBox="0 0 17.92 17.92" width="17.92" height="17.92" class="style__socialSvg___12NrW"><path d="M11.64,3.25H6.27A2.84,2.84,0,0,0,3.43,6.09v5.73a2.84,2.84,0,0,0,2.84,2.84h5.37a2.84,2.84,0,0,0,2.84-2.84V6.09A2.84,2.84,0,0,0,11.64,3.25ZM9,12.49A3.56,3.56,0,0,1,5.41,8.94,3.61,3.61,0,0,1,6.5,6.36,3.28,3.28,0,0,1,9,5.39,3.34,3.34,0,0,1,12.51,9,3.56,3.56,0,0,1,9,12.49ZM12.6,6.12a.83.83,0,1,1,.83-.83A.83.83,0,0,1,12.6,6.12Z"/><path d="M16.93,0H1A1,1,0,0,0,0,1V16.93a1,1,0,0,0,1,1H16.93a1,1,0,0,0,1-1V1A1,1,0,0,0,16.93,0ZM15.46,11.82a3.82,3.82,0,0,1-3.82,3.82H6.27a3.82,3.82,0,0,1-3.82-3.82V6.09A3.82,3.82,0,0,1,6.27,2.27h5.37a3.82,3.82,0,0,1,3.82,3.82Z"/><path d="M8.94,6.58H8.88a2.21,2.21,0,0,0-1.55.64A2.41,2.41,0,0,0,6.6,8.94a2.35,2.35,0,1,0,4.71,0h0A2.18,2.18,0,0,0,8.94,6.58Z"/></svg>