<svg xmlns="http://www.w3.org/2000/svg" viewBox="0 0 17.92 17.92" width="17.92" height="17.92" class="style__socialSvg___12NrW"><path d="M16.93,0H1A1,1,0,0,0,0,1V16.93a1,1,0,0,0,1,1H16.93a1,1,0,0,0,1-1V1A1,1,0,0,0,16.93,0Zm-3,6.64q0,.15,0,.3A6.64,6.64,0,0,1,3.69,12.53a4.75,4.75,0,0,0,.56,0,4.68,4.68,0,0,0,2.9-1A2.34,2.34,0,0,1,5,9.94,2.33,2.33,0,0,0,6,9.9,2.33,2.33,0,0,1,4.14,7.62v0a2.32,2.32,0,0,0,1.06.29,2.34,2.34,0,0,1-.72-3.12A6.63,6.63,0,0,0,9.29,7.2a2.34,2.34,0,0,1,4-2.13,4.68,4.68,0,0,0,1.48-.57,2.34,2.34,0,0,1-1,1.29,4.66,4.66,0,0,0,1.34-.37A4.75,4.75,0,0,1,13.9,6.64Z"/></svg>