<svg xmlns="http://www.w3.org/2000/svg" viewBox="0 0 17.92 17.92" width="17.92" height="17.92" class="style__socialSvg___12NrW"><path d="M8.86,7.21a.32.32,0,0,0,.24-.09.29.29,0,0,0,.09-.22V5a.22.22,0,0,0-.09-.19.37.37,0,0,0-.24-.07.3.3,0,0,0-.21.07A.22.22,0,0,0,8.56,5V6.9a.31.31,0,0,0,.08.22A.29.29,0,0,0,8.86,7.21Z"/><path d="M8.1,13.28a.65.65,0,0,1-.2.17.32.32,0,0,1-.18.07.14.14,0,0,1-.13,0,.26.26,0,0,1,0-.16V10.82H6.91v2.71A.7.7,0,0,0,7,14a.41.41,0,0,0,.34.15A.76.76,0,0,0,7.73,14a1.2,1.2,0,0,0,.37-.3v.36h.65V10.82H8.1Z"/><path d="M4.39,10.32h.75v3.74h.73V10.32h.76V9.68H4.39Z"/><path d="M10.46,10.79a.67.67,0,0,0-.3.08,1,1,0,0,0-.28.22V9.68H9.24v4.38h.65v-.25a.9.9,0,0,0,.28.22.74.74,0,0,0,.34.07.54.54,0,0,0,.44-.19.82.82,0,0,0,.15-.53V11.59a1,1,0,0,0-.16-.6A.56.56,0,0,0,10.46,10.79Zm0,2.51a.34.34,0,0,1-.06.22.2.2,0,0,1-.18.07.38.38,0,0,1-.15,0,.53.53,0,0,1-.16-.11v-2a.55.55,0,0,1,.14-.1.31.31,0,0,1,.14,0,.24.24,0,0,1,.2.09.35.35,0,0,1,.07.24Z"/><path d="M12.42,10.74a1,1,0,0,0-.71.26.91.91,0,0,0-.28.69v1.45a1,1,0,0,0,.25.74.89.89,0,0,0,.69.26.93.93,0,0,0,.72-.25,1,1,0,0,0,.25-.75V13h-.67v.15a.66.66,0,0,1-.06.36.26.26,0,0,1-.22.09.24.24,0,0,1-.22-.1.68.68,0,0,1-.06-.35v-.61h1.24v-.83a1,1,0,0,0-.24-.7A.9.9,0,0,0,12.42,10.74ZM12.67,12H12.1v-.33a.44.44,0,0,1,.06-.29.26.26,0,0,1,.22-.09.25.25,0,0,1,.21.09.5.5,0,0,1,.06.29Z"/><path d="M16.93,0H1A1,1,0,0,0,0,1V16.93a1,1,0,0,0,1,1H16.93a1,1,0,0,0,1-1V1A1,1,0,0,0,16.93,0ZM10.51,4.17h.73V6.9a.27.27,0,0,0,.05.19.18.18,0,0,0,.14.06.44.44,0,0,0,.21-.08.94.94,0,0,0,.22-.19V4.17h.73V7.73h-.73V7.34a1.58,1.58,0,0,1-.41.34,1,1,0,0,1-.43.11.46.46,0,0,1-.38-.16.75.75,0,0,1-.13-.48ZM7.81,5a.81.81,0,0,1,.29-.66,1.21,1.21,0,0,1,.79-.25,1.05,1.05,0,0,1,.74.26A.87.87,0,0,1,9.92,5V6.84a.9.9,0,0,1-.29.71,1.08,1.08,0,0,1-.78.26,1.09,1.09,0,0,1-.76-.27,1,1,0,0,1-.28-.72Zm-2-2.08.53,1.93h.06l.51-1.93h.83l-1,2.82v2H6V5.82L5,2.91ZM16,13a2,2,0,0,1-2,2H3.89a2,2,0,0,1-2-2V10.92a2,2,0,0,1,2-2H14a2,2,0,0,1,2,2Z"/></svg>