<svg xmlns="http://www.w3.org/2000/svg" viewBox="0 0 444.83 93.04" width="444.83" height="93.04" class="style__copyrightsLogoImg___2hn_K"><path d="M398.31,0a46.52,46.52,0,1,0,46.52,46.52A46.57,46.57,0,0,0,398.31,0Zm0,68.55a22,22,0,1,1,22-22A22.06,22.06,0,0,1,398.31,68.55ZM70,64.85A4.79,4.79,0,0,0,64.2,62.6c-4.11,1.7-5.57,3.12-10.78,4.84a22,22,0,1,1,0-41.85c5.21,1.73,6.67,3.14,10.78,4.84A4.79,4.79,0,0,0,70,28.18c2.94-5.09,6.11-10.62,6.92-12a4.71,4.71,0,0,0-1.1-5.76A46.66,46.66,0,0,0,48.09,0c-.52,0-1,0-1.57,0a46.52,46.52,0,1,0,0,93c.55,0,1.1,0,1.63,0A46.66,46.66,0,0,0,75.81,82.63a4.71,4.71,0,0,0,1.1-5.76C76.11,75.48,72.93,69.94,70,64.85ZM135.62,1.07h-7.74A39.41,39.41,0,0,0,88.51,40.44c0,6.61,0,32.58,0,46.8a3.13,3.13,0,0,0,3.16,3.12h18.49a3.16,3.16,0,0,0,3.13-3.15c0-.76,0-46.33,0-46.78a14.59,14.59,0,0,1,14.58-14.56h7.73a2,2,0,0,0,2-2V3.1A2,2,0,0,0,135.62,1.07Zm154.5,87.26V67.58a2,2,0,0,0-2-2h-7.73A14.59,14.59,0,0,1,265.81,51c0-.45,0-46,0-46.78a3.16,3.16,0,0,0-3.13-3.15H244.18A3.13,3.13,0,0,0,241,4.18c0,14.23,0,40.19,0,46.8a39.41,39.41,0,0,0,39.37,39.39h7.74A2,2,0,0,0,290.12,88.33Zm55.2,0V67.58a2,2,0,0,0-2-2h-7.73A14.59,14.59,0,0,1,321,51c0-.45,0-46,0-46.78a3.16,3.16,0,0,0-3.13-3.15H299.38a3.13,3.13,0,0,0-3.16,3.12c0,14.23,0,40.19,0,46.8a39.41,39.41,0,0,0,39.37,39.39h7.74A2,2,0,0,0,345.32,88.33ZM186.73,0c-25.65,0-44.06,20.87-44.06,46.52S161.08,93,186.73,93l1.68,0a46.66,46.66,0,0,0,27.66-10.37,4.71,4.71,0,0,0,1.1-5.76c-.8-1.39-4-6.93-6.92-12a4.79,4.79,0,0,0-5.79-2.25c-4.11,1.7-5.57,3.12-10.78,4.84a21.93,21.93,0,0,1-6.91,1.11c-8.66,0-14.9-5.83-17.31-13.12h55.67a4.64,4.64,0,0,0,4.49-4,56.29,56.29,0,0,0,.36-5.69C230,20.06,212.38,0,186.73,0Zm-17.8,37.67c2.1-8.18,8.49-13.18,17.8-13.18s14.89,5,17,13.18Z"/></svg>