<svg xmlns="http://www.w3.org/2000/svg" viewBox="0 0 17.92 17.92" width="17.92" height="17.92" class="style__socialSvg___12NrW"><path d="M14.29,7.61a.88.88,0,0,0-.32.07A4.05,4.05,0,0,1,15,9a.87.87,0,0,0-.69-1.4Z"/><path d="M14.33,9.72a3.1,3.1,0,0,0-1.24-1.65A.45.45,0,0,1,13,8a7.25,7.25,0,0,0-4-1.11A7.39,7.39,0,0,0,4.93,8,.3.3,0,0,1,4.8,8,3.11,3.11,0,0,0,3.53,9.73s0,.07,0,.12a2.86,2.86,0,0,0,0,.43c0,1.88,2.45,3.42,5.47,3.42s5.47-1.54,5.47-3.42a1.84,1.84,0,0,0,0-.41A.4.4,0,0,1,14.33,9.72ZM5.75,9.53A1.15,1.15,0,0,1,6.89,8.39,1.13,1.13,0,1,1,5.75,9.53Zm5.55,2.83A3.2,3.2,0,0,1,9,13.1a3.23,3.23,0,0,1-2.35-.74.44.44,0,0,1,0-.62.45.45,0,0,1,.61,0A2.41,2.41,0,0,0,9,12.23a2.39,2.39,0,0,0,1.73-.49.45.45,0,0,1,.61,0A.44.44,0,0,1,11.3,12.36Zm-.25-1.71A1.13,1.13,0,0,1,9.91,9.53a1.15,1.15,0,0,1,1.14-1.14,1.13,1.13,0,0,1,0,2.26Z"/><path d="M3.63,7.61a.89.89,0,0,0-.87.88A.86.86,0,0,0,2.9,9a4.09,4.09,0,0,1,1-1.3A.87.87,0,0,0,3.63,7.61Z"/><path d="M16.93,0H1A1,1,0,0,0,0,1V16.93a1,1,0,0,0,1,1H16.93a1,1,0,0,0,1-1V1A1,1,0,0,0,16.93,0ZM15.24,9.93a2.06,2.06,0,0,1,0,.35c0,2.36-2.84,4.28-6.33,4.28S2.6,12.64,2.6,10.28a2.36,2.36,0,0,1,0-.38,1.77,1.77,0,0,1-.73-1.41A1.74,1.74,0,0,1,3.63,6.75a1.72,1.72,0,0,1,1,.35,8,8,0,0,1,4-1.1l1-3.21,2.68.63a1.44,1.44,0,0,1,1.27-.76,1.46,1.46,0,1,1-1.45,1.6l-1.93-.45L9.53,6a8.12,8.12,0,0,1,3.69,1.11,1.72,1.72,0,0,1,1.07-.37A1.74,1.74,0,0,1,16,8.49,1.68,1.68,0,0,1,15.24,9.93Z"/><path d="M13.63,4.72a.6.6,0,0,0,.6-.6.59.59,0,0,0-.6-.59.58.58,0,0,0-.59.59A.59.59,0,0,0,13.63,4.72Z"/></svg>